HIERARCHY
ROOT hip
{
	OFFSET 0.000000 0.000000 0.000000 
	CHANNELS 6 Xposition Yposition Zposition Xrotation Zrotation Yrotation
	JOINT abdomen
	{
		OFFSET 0.000000 3.402643 0.000000 
		CHANNELS 3 Xrotation Zrotation Yrotation
		JOINT chest
		{
			OFFSET 0.000000 8.438565 -0.680529 
			CHANNELS 3 Xrotation Zrotation Yrotation
			JOINT neck
			{
				OFFSET 0.000000 10.207942 -0.272212 
				CHANNELS 3 Xrotation Zrotation Yrotation
				JOINT head
				{
					OFFSET 0.000000 3.130431 0.000000 
					CHANNELS 3 Xrotation Zrotation Yrotation
					End Site
					{
						OFFSET 0.000000 3.130435 0.000000 
					}
				}
			}
			JOINT lCollar
			{
				OFFSET 3.470700 6.669187 -0.816635 
				CHANNELS 3 Yrotation Zrotation Xrotation
				JOINT lShldr
				{
					OFFSET 3.198488 0.000000 0.000000 
					CHANNELS 3 Zrotation Yrotation Xrotation
					JOINT lForeArm
					{
						OFFSET 10.139888 0.000000 0.000000 
						CHANNELS 3 Yrotation Zrotation Xrotation
						JOINT lHand
						{
							OFFSET 8.370511 0.000000 0.000000 
							CHANNELS 3 Zrotation Yrotation Xrotation
							End Site
							{
								OFFSET 4.083176 0.000000 0.000000 
							}
						}
					}
				}
			}
			JOINT rCollar
			{
				OFFSET -3.470700 6.669187 -0.816635 
				CHANNELS 3 Yrotation Zrotation Xrotation
				JOINT rShldr
				{
					OFFSET -3.198488 0.000000 0.000000 
					CHANNELS 3 Zrotation Yrotation Xrotation
					JOINT rForeArm
					{
						OFFSET -10.139888 0.000000 0.000000 
						CHANNELS 3 Yrotation Zrotation Xrotation
						JOINT rHand
						{
							OFFSET -8.370511 0.000000 0.000000 
							CHANNELS 3 Zrotation Yrotation Xrotation
							End Site
							{
								OFFSET -4.083176 0.000000 0.000000 
							}
						}
					}
				}
			}
		}
	}
	JOINT lThigh
	{
		OFFSET 5.308129 -1.633274 1.361059 
		CHANNELS 3 Xrotation Zrotation Yrotation
		JOINT lShin
		{
			OFFSET -2.041588 -20.007561 0.000000 
			CHANNELS 3 Xrotation Zrotation Yrotation
			JOINT lFoot
			{
				OFFSET 0.000000 -19.190928 -1.224953 
				CHANNELS 3 Xrotation Yrotation Zrotation
				End Site
				{
					OFFSET 0.000000 -2.449906 4.627600 
				}
			}
		}
	}
	JOINT rThigh
	{
		OFFSET -5.308129 -1.633274 1.361059 
		CHANNELS 3 Xrotation Zrotation Yrotation
		JOINT rShin
		{
			OFFSET 2.041588 -20.007561 0.000000 
			CHANNELS 3 Xrotation Zrotation Yrotation
			JOINT rFoot
			{
				OFFSET 0.000000 -19.190928 -1.224953 
				CHANNELS 3 Xrotation Yrotation Zrotation
				End Site
				{
					OFFSET 0.000000 -2.449906 4.627600 
				}
			}
		}
	}
}
MOTION
Frames: 6
Frame Time: 0.033333
-30.302935 49.654572 72.654594 4.228516 6.650391 -56.113281 26.939514 -14.038520 -4.421112 -21.396486 8.154297 2.646484 51.063168 8.107644 2.471410 -53.515629 -10.888671 23.476566 2.000000 -2.000000 0.000000 -86.689453 21.865234 -6.832298 -50.753632 -1.905909 -2.036899 9.652667 65.901886 5.283469 -2.000000 2.000000 0.000000 81.894531 -31.650391 4.667969 52.999367 1.503923 -2.021489 -43.625908 -57.605598 26.428749 -29.312443 20.339106 0.404141 28.657032 -4.658625 -2.625069 1.086501 -2.364725 -14.784084 1.511725 -14.027486 -13.228127 23.933640 4.674353 2.162005 -20.825260 -0.822406 12.437723 
-30.378960 49.623055 72.686653 4.589844 7.001954 -55.156246 26.954353 -14.189857 -4.493321 -21.396486 8.154297 2.646484 51.063168 8.107644 2.471410 -52.744141 -10.253905 22.089844 2.000000 -2.000000 0.000000 -86.738281 22.871094 -7.740345 -50.574913 -1.625540 -1.925854 7.999932 66.872955 4.838776 -2.000000 2.000000 0.000000 81.347656 -31.210936 5.078125 53.538376 1.644958 -2.091515 -43.294453 -57.189686 26.101892 -30.262814 20.204542 -0.632179 28.471687 -4.570793 -2.598878 1.321208 -2.835462 -14.657760 1.171095 -13.562733 -13.149785 24.459219 4.654567 2.065108 -21.147362 -1.720244 12.580494 
-30.455101 49.567909 72.718590 4.960938 7.353516 -54.022186 26.763412 -14.442537 -4.405589 -21.406250 7.978971 2.618214 51.063168 8.107644 2.471410 -52.128910 -9.423827 20.566408 2.000000 -2.000000 0.000000 -87.080078 23.769531 -9.097624 -50.585796 -1.745374 -1.967736 7.259303 66.886551 5.922025 -2.000000 2.000000 0.000000 81.142578 -30.517578 5.483322 54.054905 1.466633 -2.052994 -42.200390 -57.045338 25.136457 -31.218863 19.901304 -1.229773 29.004532 -4.648527 -2.661523 0.942615 -3.175179 -14.840132 0.857489 -13.009964 -13.622232 24.809948 4.644582 2.062658 -21.487698 -2.774307 13.039116 
-30.531126 49.520645 72.750648 5.292969 7.695313 -52.899086 26.789141 -14.599512 -4.490502 -21.250000 7.617188 2.597656 51.063168 8.107644 2.471410 -51.679688 -8.408203 19.061071 2.000000 -2.000000 0.000000 -86.943359 24.746094 -10.777161 -50.577568 -1.915089 -2.026585 5.106676 66.931610 5.587040 -2.000000 2.000000 0.000000 80.654297 -29.541016 6.015625 54.758598 1.438522 -2.074187 -40.889969 -56.618900 24.324543 -32.280319 19.391821 -2.292926 29.185022 -4.624769 -2.699549 0.972062 -3.118123 -14.620179 0.517089 -12.842132 -13.937629 25.163244 4.633524 2.273768 -22.016701 -3.957862 13.122739 
-30.607271 49.441864 72.782593 5.849610 8.017769 -51.552032 26.639557 -14.759891 -4.563845 -21.093750 7.089843 2.363281 51.063168 8.107644 2.471410 -51.416019 -7.363281 17.978516 2.000000 -2.000000 0.000000 -86.962891 25.410156 -12.320027 -50.753632 -1.905909 -2.036899 4.206396 67.005722 6.095860 -2.000000 2.000000 0.000000 80.253906 -28.437500 6.650391 55.462551 1.420729 -2.104558 -39.827450 -56.164711 23.412355 -33.482029 18.943184 -3.050903 29.713911 -4.590668 -2.734897 0.603992 -3.604235 -14.525552 0.350716 -12.721102 -14.275698 25.335257 4.614864 2.284282 -22.421408 -4.516797 13.525170 
-30.683298 49.426109 72.814636 6.210938 8.535156 -50.232922 26.852299 -14.821190 -4.818932 -20.751953 6.562500 2.324219 51.063168 8.107644 2.471410 -51.523441 -6.484375 16.933594 2.000000 -2.000000 0.000000 -86.835938 25.751955 -13.466798 -50.761860 -1.736194 -1.978348 3.669306 67.394417 6.346995 -2.000000 2.000000 0.000000 79.931641 -27.285158 7.456460 56.353420 1.552581 -2.184895 -38.431923 -55.727997 22.349531 -34.514523 18.307257 -4.027443 29.714935 -4.576021 -2.760442 0.831792 -3.603674 -14.506936 -0.099466 -12.415257 -14.922860 25.686308 4.595325 2.299155 -22.197832 -6.422414 11.928513 
